<svg width="16.000000" height="16.000000" viewBox="0 0 16 16" fill="none" xmlns="http://www.w3.org/2000/svg" xmlns:xlink="http://www.w3.org/1999/xlink">
	<desc>
			Created with Pixso.
	</desc>
	<defs>
		<clipPath id="clip1_96">
			<rect id="clipboard" width="16.000000" height="16.000000" fill="white" fill-opacity="0"/>
		</clipPath>
	</defs>
	<g clip-path="url(#clip1_96)">
		<path id="Vector" d="M9.99 1.33L5.99 1.33C5.63 1.33 5.33 1.63 5.33 1.99L5.33 3.33C5.33 3.7 5.63 3.99 5.99 3.99L9.99 3.99C10.36 3.99 10.66 3.7 10.66 3.33L10.66 1.99C10.66 1.63 10.36 1.33 9.99 1.33Z" fill="#01FE84" fill-opacity="1.000000" fill-rule="nonzero"/>
		<path id="Subtract" d="M4 2.66675C3.64648 2.66683 3.3075 2.8073 3.0575 3.05727C2.8075 3.30732 2.66699 3.64646 2.66699 4.00008L2.66699 13.3334C2.66699 13.687 2.8075 14.0262 3.0575 14.2762C3.30762 14.5263 3.64673 14.6667 4.00037 14.6667L12.0004 14.6667C12.354 14.6667 12.6931 14.5263 12.9431 14.2762C13.1932 14.0262 13.3336 13.687 13.3336 13.3334L13.3336 4.00008C13.3336 3.64646 13.1932 3.30732 12.9431 3.05727C12.6931 2.80722 12.354 2.66675 12.0004 2.66675L12 2.66675L12 3.33334C12 4.4379 11.1046 5.33334 10 5.33334L6 5.33334C4.89539 5.33334 4 4.4379 4 3.33334L4 2.66675ZM5.33337 2.66675L10.6666 2.66675L10.6666 3.33334C10.6666 3.70152 10.3682 4 10 4L6 4C5.63184 4 5.33337 3.70152 5.33337 3.33334L5.33337 2.66675Z" clip-rule="evenodd" fill="#01FE84" fill-opacity="1.000000" fill-rule="evenodd"/>
	</g>
</svg>
