<svg width="63.000000" height="62.000000" viewBox="0 0 63 62" fill="none" xmlns="http://www.w3.org/2000/svg" xmlns:xlink="http://www.w3.org/1999/xlink">
	<desc>
			Created with Pixso.
	</desc>
	<defs/>
	<rect id="Illustration" width="63.000000" height="62.000000" fill="#444444" fill-opacity="0"/>
	<rect id="Shape" x="6.000000" y="2.000000" rx="3.000000" width="40.000000" height="57.000000" fill="#01D971" fill-opacity="1.000000"/>
	<rect id="Shape" x="3.000000" y="2.000000" rx="3.000000" width="40.000000" height="57.000000" fill="#02FE84" fill-opacity="1.000000"/>
	<rect id="Shape" x="14.000000" y="44.000000" rx="2.000000" width="16.000000" height="5.000000" fill="#FFFFFF" fill-opacity="1.000000"/>
	<path id="Shape" d="M49.45 15.57C50.85 14.17 53.14 14.21 54.49 15.67C55.84 17.13 55.7 19.42 54.18 20.7L33.98 37.86C33 38.7 31.52 38.61 30.65 37.66C29.77 36.71 29.8 35.23 30.71 34.32L49.45 15.57Z" fill="#01D971" fill-opacity="1.000000" fill-rule="nonzero"/>
	<path id="Shape" d="M29.03 34.45C29.53 33.95 31.08 32.75 31.84 33.11C32.79 33.55 35.2 35.82 35.42 36.84C35.59 37.66 34.31 38.72 33.84 39L29.03 34.45Z" fill="#FFFFFF" fill-opacity="1.000000" fill-rule="evenodd"/>
	<path id="Shape" d="M29.16 43.28C25.3 43.62 22.44 46.62 22.12 46.53C21.8 46.45 25.29 33.25 30.19 34.31C36.67 35.7 34.05 42.85 29.16 43.28Z" fill="#2F2F2F" fill-opacity="1.000000" fill-rule="evenodd"/>
	<circle id="Shape" cx="49.500000" cy="48.500000" r="10.500000" fill="#01D971" fill-opacity="1.000000"/>
	<circle id="Shape" cx="47.500000" cy="46.500000" r="7.500000" fill="#02FE84" fill-opacity="1.000000"/>
	<circle id="Shape" cx="30.000000" cy="10.000000" r="4.000000" fill="#FFFFFF" fill-opacity="1.000000"/>
	<path id="Shape" d="M3 44.14L3 40.1C4.74 39.82 6.58 39.36 8.39 38.63C12.74 36.88 16.82 33.66 18.89 27.96C19.08 27.45 19.24 26.96 19.39 26.5C18.54 26.52 17.73 26.5 16.96 26.45C14.51 26.27 12.15 25.67 10.62 24.34C9.81 23.63 9.2 22.67 9.04 21.49C8.89 20.34 9.2 19.21 9.78 18.18C10.86 16.24 12.57 14.78 14.44 13.97C16.28 13.18 18.47 12.95 20.42 13.82C22.45 14.73 23.81 16.65 24.23 19.3C24.35 20.1 24.39 20.96 24.34 21.9C27.3 21.31 30.5 20.27 33.6 18.71C37.99 16.5 40.97 14.67 43 13.2L43 18.03C41.01 19.3 38.52 20.71 35.39 22.28C31.49 24.24 27.4 25.49 23.67 26.09C23.41 27.11 23.07 28.19 22.65 29.33C20.11 36.31 15.06 40.26 9.88 42.34C7.56 43.28 5.2 43.84 3 44.14ZM20.27 19.92C20.38 20.6 20.4 21.43 20.29 22.45C19.2 22.53 18.18 22.53 17.25 22.46C15.07 22.3 13.79 21.79 13.25 21.32C13.03 21.13 13.01 21.02 13.01 20.97C13 20.9 12.99 20.63 13.27 20.12C13.9 18.99 14.93 18.12 16.02 17.65C17.13 17.17 18.12 17.18 18.79 17.47C19.36 17.73 20.03 18.34 20.27 19.92Z" fill="#FFFFFF" fill-opacity="1.000000" fill-rule="evenodd"/>
</svg>
