<svg width="66.000000" height="66.000000" viewBox="0 0 66 66" fill="none" xmlns="http://www.w3.org/2000/svg" xmlns:xlink="http://www.w3.org/1999/xlink">
	<desc>
			Created with Pixso.
	</desc>
	<defs/>
	<path id="Polygon 5" d="M37.78 9.03L58.11 20.76C59.97 21.83 61.11 23.82 61.11 25.96L61.11 48.03C61.11 50.17 59.97 52.16 58.11 53.23L37.95 64.86C36.69 65.59 35.21 65.84 33.78 65.55L33.5 65.5C30.61 64.92 28.57 62.33 28.68 59.39L30.36 13.13C30.44 10.97 31.92 9.11 34.01 8.54C35.28 8.19 36.64 8.37 37.78 9.03Z" fill="#01D971" fill-opacity="1.000000" fill-rule="nonzero"/>
	<path id="Polygon 3" d="M30 1.73L7.42 14.76C5.56 15.83 4.42 17.82 4.42 19.96L4.42 46.03C4.42 48.17 5.56 50.16 7.42 51.23L30 64.26C31.85 65.33 34.14 65.33 36 64.26L58.57 51.23C60.43 50.16 61.57 48.17 61.57 46.03L61.57 19.96C61.57 17.82 60.43 15.83 58.57 14.76L36 1.73C34.14 0.66 31.85 0.66 30 1.73Z" fill="#02FE84" fill-opacity="1.000000" fill-rule="evenodd"/>
	<path id="Polygon 4" d="M18.67 21.26C16.82 22.33 15.67 24.32 15.67 26.46L15.67 39.53C15.67 41.67 16.82 43.66 18.67 44.73L30 51.26C31.85 52.33 34.14 52.33 36 51.26L47.32 44.73C49.17 43.66 50.32 41.67 50.32 39.53L50.32 26.46C50.32 24.32 49.17 22.33 47.32 21.26L36 14.73C34.14 13.66 31.85 13.66 30 14.73L18.67 21.26ZM21.67 26.46L21.67 39.53L33 46.07L44.32 39.53L44.32 26.46L33 19.92L21.67 26.46Z" fill="#FFFFFF" fill-opacity="1.000000" fill-rule="evenodd"/>
</svg>
