<svg width="58" height="62" viewBox="0 0 58 62" fill="none" xmlns="http://www.w3.org/2000/svg">
<rect x="11" y="9.5" width="35" height="35" rx="10.6944" fill="#01FE84"/>
<g filter="url(#filter0_d_1_8)">
<path d="M35 37C35.5304 37 36.0391 36.7893 36.4142 36.4142C36.7893 36.0391 37 35.5304 37 35V19C37 18.4696 36.7893 17.9609 36.4142 17.5858C36.0391 17.2107 35.5304 17 35 17H29V24L26.5 22.5L24 24V17H23C22.4696 17 21.9609 17.2107 21.5858 17.5858C21.2107 17.9609 21 18.4696 21 19V35C21 35.5304 21.2107 36.0391 21.5858 36.4142C21.9609 36.7893 22.4696 37 23 37H35Z" fill="white"/>
</g>
<defs>
<filter id="filter0_d_1_8" x="-4" y="-2" width="66" height="66" filterUnits="userSpaceOnUse" color-interpolation-filters="sRGB">
<feFlood flood-opacity="0" result="BackgroundImageFix"/>
<feColorMatrix in="SourceAlpha" type="matrix" values="0 0 0 0 0 0 0 0 0 0 0 0 0 0 0 0 0 0 127 0" result="hardAlpha"/>
<feOffset dy="4"/>
<feGaussianBlur stdDeviation="10.5"/>
<feComposite in2="hardAlpha" operator="out"/>
<feColorMatrix type="matrix" values="0 0 0 0 0 0 0 0 0 0.458333 0 0 0 0 0.236442 0 0 0 1 0"/>
<feBlend mode="normal" in2="BackgroundImageFix" result="effect1_dropShadow_1_8"/>
<feBlend mode="normal" in="SourceGraphic" in2="effect1_dropShadow_1_8" result="shape"/>
</filter>
</defs>
</svg>
